<?xml version="1.0" encoding="UTF-8"?>
<svg version="1.1" xmlns="http://www.w3.org/2000/svg" width="210" height="210">
<path d="M0 0 C1.1034375 0.350625 2.206875 0.70125 3.34375 1.0625 C30.5421571 10.56873937 51.67817839 30.59010284 64.25 56.3125 C74.61412561 79.81221656 77.25395683 108.45533889 69 133 C68.649375 134.1034375 68.29875 135.206875 67.9375 136.34375 C58.43126063 163.5421571 38.40989716 184.67817839 12.6875 197.25 C-10.81221656 207.61412561 -39.45533889 210.25395683 -64 202 C-65.1034375 201.649375 -66.206875 201.29875 -67.34375 200.9375 C-94.5421571 191.43126063 -115.67817839 171.40989716 -128.25 145.6875 C-138.61412561 122.18778344 -141.25395683 93.54466111 -133 69 C-132.649375 67.8965625 -132.29875 66.793125 -131.9375 65.65625 C-122.43126063 38.4578429 -102.40989716 17.32182161 -76.6875 4.75 C-53.18778344 -5.61412561 -24.54466111 -8.25395683 0 0 Z " fill="#47484B" transform="translate(137,4)"/>
<path d="M0 0 C25 0 25 0 30.51953125 4.43359375 C32.27929688 7.31811523 32.27929688 7.31811523 33.8125 10.4375 C35.04683818 12.54245237 36.28252973 14.64661168 37.51953125 16.75 C38.38312256 18.3278125 38.38312256 18.3278125 39.26416016 19.9375 C41.85547852 24.50929993 44.90679774 28.69754333 48 32.9375 C50.475 36.4334375 50.475 36.4334375 53 40 C53.33 26.8 53.66 13.6 54 0 C62.58 0 71.16 0 80 0 C80 26.4 80 52.8 80 80 C71.75 80 63.5 80 55 80 C46.42303719 70.23760331 46.42303719 70.23760331 44.16796875 65.78125 C40.94485207 59.74752633 37.11202514 54.29668148 33.125 48.75 C31.10375 45.8625 29.0825 42.975 27 40 C26.67 53.2 26.34 66.4 26 80 C17.42 80 8.84 80 0 80 C0 53.6 0 27.2 0 0 Z " fill="#03C559" transform="translate(65,65)"/>
<path d="M0 0 C1.1034375 0.350625 2.206875 0.70125 3.34375 1.0625 C30.5421571 10.56873937 51.67817839 30.59010284 64.25 56.3125 C74.61412561 79.81221656 77.25395683 108.45533889 69 133 C68.649375 134.1034375 68.29875 135.206875 67.9375 136.34375 C58.43126063 163.5421571 38.40989716 184.67817839 12.6875 197.25 C-10.81221656 207.61412561 -39.45533889 210.25395683 -64 202 C-65.1034375 201.649375 -66.206875 201.29875 -67.34375 200.9375 C-94.5421571 191.43126063 -115.67817839 171.40989716 -128.25 145.6875 C-138.61412561 122.18778344 -141.25395683 93.54466111 -133 69 C-132.649375 67.8965625 -132.29875 66.793125 -131.9375 65.65625 C-122.43126063 38.4578429 -102.40989716 17.32182161 -76.6875 4.75 C-53.18778344 -5.61412561 -24.54466111 -8.25395683 0 0 Z M-98 22 C-99.01126953 22.75023437 -99.01126953 22.75023437 -100.04296875 23.515625 C-105.53330327 27.8877907 -109.73335358 33.47309859 -114 39 C-114.62132813 39.7940625 -115.24265625 40.588125 -115.8828125 41.40625 C-131.81566005 62.84057406 -137.65860545 90.63162851 -133.80859375 116.78515625 C-130.30354206 136.30266187 -122.60947846 154.4122044 -109 169 C-108.5369043 169.49870605 -108.07380859 169.99741211 -107.59667969 170.51123047 C-88.45092468 190.93968787 -63.27312351 202.8253337 -35.2265625 204.12890625 C-6.51303292 204.70625604 19.33705811 193.55958092 40 174 C40.71414062 173.33871094 41.42828125 172.67742187 42.1640625 171.99609375 C60.36703238 154.60136384 69.98991268 129.00765999 71.12890625 104.19140625 C71.70421501 75.31090666 60.47687458 49.38424929 40.9206543 28.53320312 C21.88358322 8.85372883 -4.8157973 -1.63217721 -32 -2.25 C-56.86762334 -1.68482674 -78.32436987 7.19457535 -98 22 Z " fill="#5C5C5C" transform="translate(137,4)"/>
</svg>
